# xmcd
#
# Track frame offsets:
# 150
# 19325
# 38608
# 57708
# 70064
# 102608
# 126575
# 136873
# 155936
# 176441
# 193775
# 218694
# 236517
# 245731
# 266675
# 280636
# 290493
# 309899
# 328964
#
# Disc length: 4654 seconds
#
# Revision: 1
# Processed by: cddbd v1.5.2PL0 Copyright (c) Steve Scherf et al.
# Submitted via: CedeCatalogueitor 2.6.0.6 http://personales.ya.com/cdcatalogueitor
#
DISCID=2b122c13
DTITLE=Varios - Musica De Cine Cd 2
DYEAR=1900
DGENRE=
TTITLE0=Romeo Y Julieta
TTITLE1=Streaptease
TTITLE2=9 Semanas Y Media
TTITLE3=Sonrisas Y Lagrimas
TTITLE4=Naufrago
TTITLE5=Leyendas De Pasion
TTITLE6=Memorias De Africa
TTITLE7=Gladiator
TTITLE8=Superman
TTITLE9=Oficial Y Caballero
TTITLE10=Sin Perdon
TTITLE11=El Ultimo Emperador
TTITLE12=Exodo
TTITLE13=Algo Para Recordar
TTITLE14=El Golpe
TTITLE15=La Colina Del Adios
TTITLE16=El Expreso De Medianoche
TTITLE17=Now We Are Free
TTITLE18=El Silencio De Los Corderos
EXTD=
EXTT0=
EXTT1=
EXTT2=
EXTT3=
EXTT4=
EXTT5=
EXTT6=
EXTT7=
EXTT8=
EXTT9=
EXTT10=
EXTT11=
EXTT12=
EXTT13=
EXTT14=
EXTT15=
EXTT16=
EXTT17=
EXTT18=
PLAYORDER=
